<?xml version="1.0" encoding="UTF-8"?>
<svg xmlns="http://www.w3.org/2000/svg" xmlns:xlink="http://www.w3.org/1999/xlink" width="1080pt" height="1080pt" viewBox="0 0 1080 1080" version="1.2">
<g id="surface1">
<path style=" stroke:none;fill-rule:nonzero;fill:rgb(0%,0%,0%);fill-opacity:1;" d="M 509 1.425781 C 473.257813 6.117188 438 8.640625 403 18 C 310.671875 42.160156 227.480469 90.769531 159 157.039063 C 113.929688 200.660156 76.8125 255.105469 50.691406 312 C -32 492.347656 -11 708.472656 109.882813 867 C 147.824219 916.75 193.933594 958.792969 246 993.332031 C 291.65625 1023.621094 343.191406 1046.390625 396 1061 C 467.265625 1080.355469 541.941406 1084.558594 615 1074.71875 C 798.710938 1050 959.386719 927.1875 1034 758 C 1068.742188 679.671875 1082.691406 593.195313 1078.960938 508 C 1068.542969 270.144531 885.808594 62.617188 655 12.789063 C 609 3 556 -4.75 509 1.425781 M 529 84.285156 C 567.621094 79.730469 611.523438 88.21875 649 97.117188 C 835.671875 141.429688 971.222656 305.054688 993.714844 493 C 1003.703125 576.457031 986.765625 666 949.246094 741 C 940.566406 758.363281 931.734375 775.789063 920.996094 792 C 918.558594 795.675781 913 806.792969 907.960938 806.792969 C 903.554688 806.792969 900 800.046875 897.847656 797 C 890.453125 787 882.863281 777 874 768 C 845 739 809.199219 718.027344 772 701.304688 C 646.664063 645 490 642.035156 360 682.660156 C 305.566406 699.648438 250.789063 725.226563 210 766 C 199.378906 776.617188 189.589844 787.402344 181.34375 800 C 179.167969 803.324219 176 810.640625 171 807.535156 C 165.886719 804.3125 162.269531 797 159 792 C 150.382813 779 142.753906 765 135.753906 751 C 107.183594 694 89.28125 634.832031 84.910156 571 C 72.195313 385.332031 179.355469 203.203125 349 125.308594 C 387 107.785156 428.386719 95.1875 470 89.285156 C 489.664063 86.496094 509.402344 86.597656 529 84.285156 M 520 193.425781 C 479.242188 198.792969 441.542969 210.1875 408 235 C 330.996094 291.578125 297.730469 395.035156 327.671875 486 C 338.945313 520.253906 358.578125 548.742188 382.910156 575 C 406.242188 600.175781 434.742188 619.082031 468 628.574219 C 499.167969 637.464844 532.726563 641.574219 565 637.714844 C 599 633.625 631.894531 622.519531 660 602.722656 C 719.398438 561 757.878906 501.472656 762.910156 428 C 771.835938 297.652344 652 176.027344 520 193.425781 "/>
</g>
</svg>
